<svg width="919" height="1915" viewBox="0 0 919 1915" class="keymap" xmlns="http://www.w3.org/2000/svg" xmlns:xlink="http://www.w3.org/1999/xlink">
<style>/* inherit to force styles through use tags */
svg path {
    fill: inherit;
}

/* font and background color specifications */
svg.keymap {
    font-family: SFMono-Regular,Consolas,Liberation Mono,Menlo,monospace;
    font-size: 14px;
    font-kerning: normal;
    text-rendering: optimizeLegibility;
    fill: #24292e;
}

/* default key styling */
rect.key {
    fill: #f6f8fa;
}

rect.key, rect.combo {
    stroke: #c9cccf;
    stroke-width: 1;
}

/* default key side styling, only used is draw_key_sides is set */
rect.side {
    filter: brightness(90%);
}

/* color accent for combo boxes */
rect.combo, rect.combo-separate {
    fill: #cdf;
}

/* color accent for held keys */
rect.held, rect.combo.held {
    fill: #fdd;
}

/* color accent for ghost (optional) keys */
rect.ghost, rect.combo.ghost {
    stroke-dasharray: 4, 4;
    stroke-width: 2;
}

text {
    text-anchor: middle;
    dominant-baseline: middle;
}

/* styling for layer labels */
text.label {
    font-weight: bold;
    text-anchor: start;
    stroke: white;
    stroke-width: 4;
    paint-order: stroke;
}

/* styling for optional footer */
text.footer {
    text-anchor: end;
    dominant-baseline: auto;
    stroke: white;
    stroke-width: 4;
    paint-order: stroke;
}

/* styling for combo tap, and key non-tap label text */
text.combo, text.hold, text.shifted, text.left, text.right {
    font-size: 11px;
}

text.hold {
    text-anchor: middle;
    dominant-baseline: auto;
}

text.shifted {
    text-anchor: middle;
    dominant-baseline: hanging;
}

text.left {
    text-anchor: start;
}

text.right {
    text-anchor: end;
}

text.layer-activator {
    text-decoration: underline;
}

/* styling for hold/shifted label text in combo box */
text.combo.hold, text.combo.shifted, text.combo.left, text.combo.right {
    font-size: 8px;
}

/* lighter symbol for transparent keys */
text.trans {
    fill: #7b7e81;
}

/* styling for combo dendrons */
path.combo {
    stroke-width: 1;
    stroke: gray;
    fill: none;
}

/* Start Tabler Icons Cleanup */
/* cannot use height/width with glyphs */
.icon-tabler > path {
    fill: inherit;
    stroke: inherit;
    stroke-width: 2;
}
/* hide tabler's default box */
.icon-tabler > path[stroke="none"][fill="none"] {
    visibility: hidden;
}
/* End Tabler Icons Cleanup */

@media (prefers-color-scheme: dark) {
svg.keymap { fill: #d1d6db; }
rect.key { fill: #3f4750; }
rect.key, rect.combo { stroke: #60666c; }
rect.combo, rect.combo-separate { fill: #1f3d7a; }
rect.held, rect.combo.held { fill: #854747; }
text.label, text.footer { stroke: black; }
text.trans { fill: #7e8184; }
path.combo { stroke: #7f7f7f; }

}</style>
<g transform="translate(30, 0)" class="layer-default">
<text x="0" y="28" class="label" id="default">default:</text>
<g transform="translate(0, 56)">
<g transform="translate(63, 46) rotate(15.0)" class="key keypos-0">
<rect rx="6" ry="6" x="-26" y="-26" width="52" height="52" class="key"/>
<text x="0" y="0" class="key tap">]</text>
<text x="0" y="24" class="key hold"><tspan style="font-size: 88%">LEFT GUI</tspan></text>
</g>
<g transform="translate(121, 47) rotate(15.0)" class="key keypos-1">
<rect rx="6" ry="6" x="-26" y="-26" width="52" height="52" class="key"/>
<text x="0" y="0" class="key tap">Q</text>
</g>
<g transform="translate(182, 34) rotate(15.0)" class="key keypos-2">
<rect rx="6" ry="6" x="-26" y="-26" width="52" height="52" class="key"/>
<text x="0" y="0" class="key tap">W</text>
</g>
<g transform="translate(240, 35) rotate(15.0)" class="key keypos-3">
<rect rx="6" ry="6" x="-26" y="-26" width="52" height="52" class="key"/>
<text x="0" y="0" class="key tap">&amp;Ekiril</text>
</g>
<g transform="translate(291, 63) rotate(15.0)" class="key keypos-4">
<rect rx="6" ry="6" x="-26" y="-26" width="52" height="52" class="key"/>
<text x="0" y="0" class="key tap">R</text>
</g>
<g transform="translate(341, 91) rotate(15.0)" class="key keypos-5">
<rect rx="6" ry="6" x="-26" y="-26" width="52" height="52" class="key"/>
<text x="0" y="0" class="key tap">T</text>
</g>
<g transform="translate(518, 91) rotate(-15.0)" class="key keypos-6">
<rect rx="6" ry="6" x="-26" y="-26" width="52" height="52" class="key"/>
<text x="0" y="0" class="key tap">Y</text>
</g>
<g transform="translate(568, 63) rotate(-15.0)" class="key keypos-7">
<rect rx="6" ry="6" x="-26" y="-26" width="52" height="52" class="key"/>
<text x="0" y="0" class="key tap">U</text>
</g>
<g transform="translate(619, 35) rotate(-15.0)" class="key keypos-8">
<rect rx="6" ry="6" x="-26" y="-26" width="52" height="52" class="key"/>
<text x="0" y="0" class="key tap">I</text>
</g>
<g transform="translate(676, 34) rotate(-15.0)" class="key keypos-9">
<rect rx="6" ry="6" x="-26" y="-26" width="52" height="52" class="key"/>
<text x="0" y="0" class="key tap">O</text>
</g>
<g transform="translate(738, 47) rotate(-15.0)" class="key keypos-10">
<rect rx="6" ry="6" x="-26" y="-26" width="52" height="52" class="key"/>
<text x="0" y="0" class="key tap">P</text>
</g>
<g transform="translate(795, 46) rotate(-15.0)" class="key keypos-11">
<rect rx="6" ry="6" x="-26" y="-26" width="52" height="52" class="key"/>
<text x="0" y="0" class="key tap">[</text>
<text x="0" y="24" class="key hold"><tspan style="font-size: 78%">RIGHT GUI</tspan></text>
</g>
<g transform="translate(49, 100) rotate(15.0)" class="key keypos-12">
<rect rx="6" ry="6" x="-26" y="-26" width="52" height="52" class="key"/>
<text x="0" y="0" class="key tap">Ctrl</text>
</g>
<g transform="translate(107, 101) rotate(15.0)" class="key keypos-13">
<rect rx="6" ry="6" x="-26" y="-26" width="52" height="52" class="key"/>
<text x="0" y="0" class="key tap">A</text>
</g>
<g transform="translate(168, 88) rotate(15.0)" class="key keypos-14">
<rect rx="6" ry="6" x="-26" y="-26" width="52" height="52" class="key"/>
<text x="0" y="0" class="key tap">S</text>
</g>
<g transform="translate(226, 89) rotate(15.0)" class="key keypos-15">
<rect rx="6" ry="6" x="-26" y="-26" width="52" height="52" class="key"/>
<text x="0" y="0" class="key tap">D</text>
</g>
<g transform="translate(276, 117) rotate(15.0)" class="key keypos-16">
<rect rx="6" ry="6" x="-26" y="-26" width="52" height="52" class="key"/>
<text x="0" y="0" class="key tap">F</text>
</g>
<g transform="translate(326, 145) rotate(15.0)" class="key keypos-17">
<rect rx="6" ry="6" x="-26" y="-26" width="52" height="52" class="key"/>
<text x="0" y="0" class="key tap">G</text>
</g>
<g transform="translate(532, 145) rotate(-15.0)" class="key keypos-18">
<rect rx="6" ry="6" x="-26" y="-26" width="52" height="52" class="key"/>
<text x="0" y="0" class="key tap">H</text>
</g>
<g transform="translate(583, 117) rotate(-15.0)" class="key keypos-19">
<rect rx="6" ry="6" x="-26" y="-26" width="52" height="52" class="key"/>
<text x="0" y="0" class="key tap">J</text>
</g>
<g transform="translate(633, 89) rotate(-15.0)" class="key keypos-20">
<rect rx="6" ry="6" x="-26" y="-26" width="52" height="52" class="key"/>
<text x="0" y="0" class="key tap">K</text>
</g>
<g transform="translate(691, 88) rotate(-15.0)" class="key keypos-21">
<rect rx="6" ry="6" x="-26" y="-26" width="52" height="52" class="key"/>
<text x="0" y="0" class="key tap">L</text>
</g>
<g transform="translate(752, 101) rotate(-15.0)" class="key keypos-22">
<rect rx="6" ry="6" x="-26" y="-26" width="52" height="52" class="key"/>
<text x="0" y="0" class="key tap">;</text>
</g>
<g transform="translate(810, 100) rotate(-15.0)" class="key keypos-23">
<rect rx="6" ry="6" x="-26" y="-26" width="52" height="52" class="key"/>
<text x="0" y="0" class="key tap">&#x27;</text>
<text x="0" y="24" class="key hold">Ctrl</text>
</g>
<g transform="translate(34, 154) rotate(15.0)" class="key keypos-24">
<rect rx="6" ry="6" x="-26" y="-26" width="52" height="52" class="key"/>
<text x="0" y="0" class="key tap">Alt</text>
</g>
<g transform="translate(92, 155) rotate(15.0)" class="key keypos-25">
<rect rx="6" ry="6" x="-26" y="-26" width="52" height="52" class="key"/>
<text x="0" y="0" class="key tap">Z</text>
</g>
<g transform="translate(153, 142) rotate(15.0)" class="key keypos-26">
<rect rx="6" ry="6" x="-26" y="-26" width="52" height="52" class="key"/>
<text x="0" y="0" class="key tap">X</text>
</g>
<g transform="translate(211, 143) rotate(15.0)" class="key keypos-27">
<rect rx="6" ry="6" x="-26" y="-26" width="52" height="52" class="key"/>
<text x="0" y="0" class="key tap">C</text>
</g>
<g transform="translate(262, 171) rotate(15.0)" class="key keypos-28">
<rect rx="6" ry="6" x="-26" y="-26" width="52" height="52" class="key"/>
<text x="0" y="0" class="key tap">V</text>
</g>
<g transform="translate(312, 199) rotate(15.0)" class="key keypos-29">
<rect rx="6" ry="6" x="-26" y="-26" width="52" height="52" class="key"/>
<text x="0" y="0" class="key tap">B</text>
</g>
<g transform="translate(547, 199) rotate(-15.0)" class="key keypos-30">
<rect rx="6" ry="6" x="-26" y="-26" width="52" height="52" class="key"/>
<text x="0" y="0" class="key tap">N</text>
</g>
<g transform="translate(597, 171) rotate(-15.0)" class="key keypos-31">
<rect rx="6" ry="6" x="-26" y="-26" width="52" height="52" class="key"/>
<text x="0" y="0" class="key tap">M</text>
</g>
<g transform="translate(648, 143) rotate(-15.0)" class="key keypos-32">
<rect rx="6" ry="6" x="-26" y="-26" width="52" height="52" class="key"/>
<text x="0" y="0" class="key tap">,</text>
</g>
<g transform="translate(705, 142) rotate(-15.0)" class="key keypos-33">
<rect rx="6" ry="6" x="-26" y="-26" width="52" height="52" class="key"/>
<text x="0" y="0" class="key tap">.</text>
</g>
<g transform="translate(767, 155) rotate(-15.0)" class="key keypos-34">
<rect rx="6" ry="6" x="-26" y="-26" width="52" height="52" class="key"/>
<text x="0" y="0" class="key tap">/</text>
</g>
<g transform="translate(824, 154) rotate(-15.0)" class="key keypos-35">
<rect rx="6" ry="6" x="-26" y="-26" width="52" height="52" class="key"/>
<text x="0" y="0" class="key tap">\</text>
<text x="0" y="24" class="key hold">Alt</text>
</g>
<g transform="translate(247, 226) rotate(15.0)" class="key keypos-36">
<rect rx="6" ry="6" x="-26" y="-26" width="52" height="52" class="key"/>
<text x="0" y="0" class="key tap">↹</text>
<a href="#raise">
<text x="0" y="24" class="key hold layer-activator">raise</text>
</a></g>
<g transform="translate(298, 254) rotate(15.0)" class="key keypos-37">
<rect rx="6" ry="6" x="-26" y="-26" width="52" height="52" class="key"/>
<text x="0" y="0" class="key tap">␣</text>
<text x="0" y="24" class="key hold">Shift</text>
</g>
<g transform="translate(348, 282) rotate(15.0)" class="key keypos-38">
<rect rx="6" ry="6" x="-26" y="-26" width="52" height="52" class="key"/>
<text x="0" y="0" class="key tap">⏎</text>
<a href="#lower">
<text x="0" y="24" class="key hold layer-activator">lower</text>
</a></g>
<g transform="translate(511, 282) rotate(-15.0)" class="key keypos-39">
<rect rx="6" ry="6" x="-26" y="-26" width="52" height="52" class="key"/>
<text x="0" y="0" class="key tap">Esc</text>
<a href="#lower">
<text x="0" y="24" class="key hold layer-activator">lower</text>
</a></g>
<g transform="translate(561, 254) rotate(-15.0)" class="key keypos-40">
<rect rx="6" ry="6" x="-26" y="-26" width="52" height="52" class="key"/>
<text x="0" y="0" class="key tap"><tspan style="font-size: 78%">BACKSPACE</tspan></text>
</g>
<g transform="translate(612, 226) rotate(-15.0)" class="key keypos-41">
<rect rx="6" ry="6" x="-26" y="-26" width="52" height="52" class="key"/>
<text x="0" y="0" class="key tap">⌦</text>
<a href="#raise">
<text x="0" y="24" class="key hold layer-activator">raise</text>
</a></g>
<g class="combo combopos-0">
<rect rx="6" ry="6" x="175" y="103" width="28" height="26" class="combo"/>
<a href="#game">
<text x="189" y="116" class="combo tap layer-activator">game</text>
</a><text x="189" y="127" class="combo hold">toggle</text>
</g>
<g class="combo combopos-1">
<rect rx="6" ry="6" x="309" y="255" width="28" height="26" class="combo"/>
<text x="323" y="268" class="combo tap">⌦</text>
</g>
<g class="combo combopos-2">
<rect rx="6" ry="6" x="258" y="227" width="28" height="26" class="combo"/>
<text x="272" y="240" class="combo tap"><tspan style="font-size: 78%">BACKSPACE</tspan></text>
</g>
<g class="combo combopos-3">
<path d="M238,44 l-37,-7" class="combo"/>
<path d="M238,44 l35,13" class="combo"/>
<rect rx="6" ry="6" x="224" y="31" width="28" height="26" class="combo"/>
<text x="238" y="44" class="combo tap">Ctl+C</text>
</g>
<g class="combo combopos-4">
<path d="M236,49 l-36,-10" class="combo"/>
<path d="M236,49 l36,10" class="combo"/>
<rect rx="6" ry="6" x="222" y="36" width="28" height="26" class="combo"/>
<text x="236" y="49" class="combo tap">Ctl+V</text>
</g>
<g class="combo combopos-5">
<rect rx="6" ry="6" x="197" y="22" width="28" height="26" class="combo"/>
<text x="211" y="35" class="combo tap">Ctl+X</text>
</g>
</g>
</g>
<g transform="translate(30, 372)" class="layer-lower">
<text x="0" y="28" class="label" id="lower">lower:</text>
<g transform="translate(0, 56)">
<g transform="translate(63, 46) rotate(15.0)" class="key keypos-0">
<rect rx="6" ry="6" x="-26" y="-26" width="52" height="52" class="key"/>
<text x="0" y="0" class="key tap">_</text>
</g>
<g transform="translate(121, 47) rotate(15.0)" class="key keypos-1">
<rect rx="6" ry="6" x="-26" y="-26" width="52" height="52" class="key"/>
<text x="0" y="0" class="key tap">F1</text>
</g>
<g transform="translate(182, 34) rotate(15.0)" class="key keypos-2">
<rect rx="6" ry="6" x="-26" y="-26" width="52" height="52" class="key"/>
<text x="0" y="0" class="key tap">F2</text>
</g>
<g transform="translate(240, 35) rotate(15.0)" class="key keypos-3">
<rect rx="6" ry="6" x="-26" y="-26" width="52" height="52" class="key"/>
<text x="0" y="0" class="key tap">F3</text>
</g>
<g transform="translate(291, 63) rotate(15.0)" class="key keypos-4">
<rect rx="6" ry="6" x="-26" y="-26" width="52" height="52" class="key"/>
<text x="0" y="0" class="key tap">F4</text>
</g>
<g transform="translate(341, 91) rotate(15.0)" class="key keypos-5">
<rect rx="6" ry="6" x="-26" y="-26" width="52" height="52" class="key"/>
<text x="0" y="0" class="key tap">F5</text>
</g>
<g transform="translate(518, 91) rotate(-15.0)" class="key keypos-6">
<rect rx="6" ry="6" x="-26" y="-26" width="52" height="52" class="key"/>
<text x="0" y="0" class="key tap">F6</text>
</g>
<g transform="translate(568, 63) rotate(-15.0)" class="key keypos-7">
<rect rx="6" ry="6" x="-26" y="-26" width="52" height="52" class="key"/>
<text x="0" y="0" class="key tap">F7</text>
</g>
<g transform="translate(619, 35) rotate(-15.0)" class="key keypos-8">
<rect rx="6" ry="6" x="-26" y="-26" width="52" height="52" class="key"/>
<text x="0" y="0" class="key tap">F8</text>
</g>
<g transform="translate(676, 34) rotate(-15.0)" class="key keypos-9">
<rect rx="6" ry="6" x="-26" y="-26" width="52" height="52" class="key"/>
<text x="0" y="0" class="key tap">F9</text>
</g>
<g transform="translate(738, 47) rotate(-15.0)" class="key keypos-10">
<rect rx="6" ry="6" x="-26" y="-26" width="52" height="52" class="key"/>
<text x="0" y="0" class="key tap">F10</text>
</g>
<g transform="translate(795, 46) rotate(-15.0)" class="key keypos-11">
<rect rx="6" ry="6" x="-26" y="-26" width="52" height="52" class="key"/>
<text x="0" y="0" class="key tap">F11</text>
</g>
<g transform="translate(49, 100) rotate(15.0)" class="key keypos-12">
<rect rx="6" ry="6" x="-26" y="-26" width="52" height="52" class="key"/>
<text x="0" y="0" class="key tap">+</text>
<text x="0" y="24" class="key hold">Ctrl</text>
</g>
<g transform="translate(107, 101) rotate(15.0)" class="key keypos-13">
<rect rx="6" ry="6" x="-26" y="-26" width="52" height="52" class="key"/>
<text x="0" y="0" class="key tap">!</text>
</g>
<g transform="translate(168, 88) rotate(15.0)" class="key keypos-14">
<rect rx="6" ry="6" x="-26" y="-26" width="52" height="52" class="key"/>
<text x="0" y="0" class="key tap">@</text>
</g>
<g transform="translate(226, 89) rotate(15.0)" class="key keypos-15">
<rect rx="6" ry="6" x="-26" y="-26" width="52" height="52" class="key"/>
<text x="0" y="0" class="key tap">#</text>
</g>
<g transform="translate(276, 117) rotate(15.0)" class="key keypos-16">
<rect rx="6" ry="6" x="-26" y="-26" width="52" height="52" class="key"/>
<text x="0" y="0" class="key tap">$</text>
</g>
<g transform="translate(326, 145) rotate(15.0)" class="key keypos-17">
<rect rx="6" ry="6" x="-26" y="-26" width="52" height="52" class="key"/>
<text x="0" y="0" class="key tap">%</text>
</g>
<g transform="translate(532, 145) rotate(-15.0)" class="key keypos-18">
<rect rx="6" ry="6" x="-26" y="-26" width="52" height="52" class="key"/>
<text x="0" y="0" class="key tap">^</text>
</g>
<g transform="translate(583, 117) rotate(-15.0)" class="key keypos-19">
<rect rx="6" ry="6" x="-26" y="-26" width="52" height="52" class="key"/>
<text x="0" y="0" class="key tap">&amp;</text>
</g>
<g transform="translate(633, 89) rotate(-15.0)" class="key keypos-20">
<rect rx="6" ry="6" x="-26" y="-26" width="52" height="52" class="key"/>
<text x="0" y="0" class="key tap">*</text>
</g>
<g transform="translate(691, 88) rotate(-15.0)" class="key keypos-21">
<rect rx="6" ry="6" x="-26" y="-26" width="52" height="52" class="key"/>
<text x="0" y="0" class="key tap">(</text>
</g>
<g transform="translate(752, 101) rotate(-15.0)" class="key keypos-22">
<rect rx="6" ry="6" x="-26" y="-26" width="52" height="52" class="key"/>
<text x="0" y="0" class="key tap">)</text>
</g>
<g transform="translate(810, 100) rotate(-15.0)" class="key keypos-23">
<rect rx="6" ry="6" x="-26" y="-26" width="52" height="52" class="key"/>
<text x="0" y="0" class="key tap">-</text>
<text x="0" y="24" class="key hold">Ctrl</text>
</g>
<g transform="translate(34, 154) rotate(15.0)" class="key keypos-24">
<rect rx="6" ry="6" x="-26" y="-26" width="52" height="52" class="key"/>
<text x="0" y="0" class="key tap">=</text>
<text x="0" y="24" class="key hold">Alt</text>
</g>
<g transform="translate(92, 155) rotate(15.0)" class="key keypos-25">
<rect rx="6" ry="6" x="-26" y="-26" width="52" height="52" class="key"/>
<text x="0" y="0" class="key tap">1</text>
</g>
<g transform="translate(153, 142) rotate(15.0)" class="key keypos-26">
<rect rx="6" ry="6" x="-26" y="-26" width="52" height="52" class="key"/>
<text x="0" y="0" class="key tap">2</text>
</g>
<g transform="translate(211, 143) rotate(15.0)" class="key keypos-27">
<rect rx="6" ry="6" x="-26" y="-26" width="52" height="52" class="key"/>
<text x="0" y="0" class="key tap">3</text>
</g>
<g transform="translate(262, 171) rotate(15.0)" class="key keypos-28">
<rect rx="6" ry="6" x="-26" y="-26" width="52" height="52" class="key"/>
<text x="0" y="0" class="key tap">4</text>
</g>
<g transform="translate(312, 199) rotate(15.0)" class="key keypos-29">
<rect rx="6" ry="6" x="-26" y="-26" width="52" height="52" class="key"/>
<text x="0" y="0" class="key tap">5</text>
</g>
<g transform="translate(547, 199) rotate(-15.0)" class="key keypos-30">
<rect rx="6" ry="6" x="-26" y="-26" width="52" height="52" class="key"/>
<text x="0" y="0" class="key tap">6</text>
</g>
<g transform="translate(597, 171) rotate(-15.0)" class="key keypos-31">
<rect rx="6" ry="6" x="-26" y="-26" width="52" height="52" class="key"/>
<text x="0" y="0" class="key tap">7</text>
</g>
<g transform="translate(648, 143) rotate(-15.0)" class="key keypos-32">
<rect rx="6" ry="6" x="-26" y="-26" width="52" height="52" class="key"/>
<text x="0" y="0" class="key tap">8</text>
</g>
<g transform="translate(705, 142) rotate(-15.0)" class="key keypos-33">
<rect rx="6" ry="6" x="-26" y="-26" width="52" height="52" class="key"/>
<text x="0" y="0" class="key tap">9</text>
</g>
<g transform="translate(767, 155) rotate(-15.0)" class="key keypos-34">
<rect rx="6" ry="6" x="-26" y="-26" width="52" height="52" class="key"/>
<text x="0" y="0" class="key tap">0</text>
</g>
<g transform="translate(824, 154) rotate(-15.0)" class="key trans keypos-35">
<rect rx="6" ry="6" x="-26" y="-26" width="52" height="52" class="key trans"/>
<text x="0" y="0" class="key trans tap">▽</text>
</g>
<g transform="translate(247, 226) rotate(15.0)" class="key keypos-36">
<rect rx="6" ry="6" x="-26" y="-26" width="52" height="52" class="key"/>
<text x="0" y="0" class="key tap">↹</text>
<a href="#adjust">
<text x="0" y="24" class="key hold layer-activator">adjust</text>
</a></g>
<g transform="translate(298, 254) rotate(15.0)" class="key trans keypos-37">
<rect rx="6" ry="6" x="-26" y="-26" width="52" height="52" class="key trans"/>
<text x="0" y="0" class="key trans tap">▽</text>
</g>
<g transform="translate(348, 282) rotate(15.0)" class="key held keypos-38">
<rect rx="6" ry="6" x="-26" y="-26" width="52" height="52" class="key held"/>
</g>
<g transform="translate(511, 282) rotate(-15.0)" class="key trans keypos-39">
<rect rx="6" ry="6" x="-26" y="-26" width="52" height="52" class="key trans"/>
<text x="0" y="0" class="key trans tap">▽</text>
</g>
<g transform="translate(561, 254) rotate(-15.0)" class="key trans keypos-40">
<rect rx="6" ry="6" x="-26" y="-26" width="52" height="52" class="key trans"/>
<text x="0" y="0" class="key trans tap">▽</text>
</g>
<g transform="translate(612, 226) rotate(-15.0)" class="key keypos-41">
<rect rx="6" ry="6" x="-26" y="-26" width="52" height="52" class="key"/>
<text x="0" y="0" class="key tap">⌦</text>
<a href="#adjust">
<text x="0" y="24" class="key hold layer-activator">adjust</text>
</a></g>
</g>
</g>
<g transform="translate(30, 744)" class="layer-raise">
<text x="0" y="28" class="label" id="raise">raise:</text>
<g transform="translate(0, 56)">
<g transform="translate(63, 46) rotate(15.0)" class="key keypos-0">
<rect rx="6" ry="6" x="-26" y="-26" width="52" height="52" class="key"/>
<text x="0" y="0" class="key tap">
<tspan x="0" dy="-0.6em">KP</tspan><tspan x="0" dy="1.2em">NUM</tspan>
</text>
</g>
<g transform="translate(121, 47) rotate(15.0)" class="key keypos-1">
<rect rx="6" ry="6" x="-26" y="-26" width="52" height="52" class="key"/>
<text x="0" y="0" class="key tap">/</text>
</g>
<g transform="translate(182, 34) rotate(15.0)" class="key keypos-2">
<rect rx="6" ry="6" x="-26" y="-26" width="52" height="52" class="key"/>
<text x="0" y="0" class="key tap">1</text>
</g>
<g transform="translate(240, 35) rotate(15.0)" class="key keypos-3">
<rect rx="6" ry="6" x="-26" y="-26" width="52" height="52" class="key"/>
<text x="0" y="0" class="key tap">2</text>
</g>
<g transform="translate(291, 63) rotate(15.0)" class="key keypos-4">
<rect rx="6" ry="6" x="-26" y="-26" width="52" height="52" class="key"/>
<text x="0" y="0" class="key tap">3</text>
</g>
<g transform="translate(341, 91) rotate(15.0)" class="key keypos-5">
<rect rx="6" ry="6" x="-26" y="-26" width="52" height="52" class="key"/>
<text x="0" y="0" class="key tap">-</text>
</g>
<g transform="translate(518, 91) rotate(-15.0)" class="key keypos-6">
<rect rx="6" ry="6" x="-26" y="-26" width="52" height="52" class="key"/>
<text x="0" y="0" class="key tap">
<tspan x="0" dy="-0.6em">Vol</tspan><tspan x="0" dy="1.2em">Up</tspan>
</text>
</g>
<g transform="translate(568, 63) rotate(-15.0)" class="key keypos-7">
<rect rx="6" ry="6" x="-26" y="-26" width="52" height="52" class="key"/>
<text x="0" y="0" class="key tap">Home</text>
</g>
<g transform="translate(619, 35) rotate(-15.0)" class="key keypos-8">
<rect rx="6" ry="6" x="-26" y="-26" width="52" height="52" class="key"/>
<text x="0" y="0" class="key tap">
<tspan x="0" dy="-0.6em">Print</tspan><tspan x="0" dy="1.2em">Scrn</tspan>
</text>
</g>
<g transform="translate(676, 34) rotate(-15.0)" class="key keypos-9">
<rect rx="6" ry="6" x="-26" y="-26" width="52" height="52" class="key"/>
<text x="0" y="0" class="key tap">
<tspan x="0" dy="-0.6em">Page</tspan><tspan x="0" dy="1.2em">Up</tspan>
</text>
</g>
<g transform="translate(738, 47) rotate(-15.0)" class="key keypos-10">
<rect rx="6" ry="6" x="-26" y="-26" width="52" height="52" class="key"/>
<text x="0" y="0" class="key tap">SLCK</text>
</g>
<g transform="translate(795, 46) rotate(-15.0)" class="key keypos-11">
<rect rx="6" ry="6" x="-26" y="-26" width="52" height="52" class="key"/>
<text x="0" y="0" class="key tap">
<tspan x="0" dy="-0.6em">Caps</tspan><tspan x="0" dy="1.2em">Lock</tspan>
</text>
</g>
<g transform="translate(49, 100) rotate(15.0)" class="key keypos-12">
<rect rx="6" ry="6" x="-26" y="-26" width="52" height="52" class="key"/>
<text x="0" y="0" class="key tap">=</text>
<text x="0" y="24" class="key hold">Ctrl</text>
</g>
<g transform="translate(107, 101) rotate(15.0)" class="key keypos-13">
<rect rx="6" ry="6" x="-26" y="-26" width="52" height="52" class="key"/>
<text x="0" y="0" class="key tap">*</text>
</g>
<g transform="translate(168, 88) rotate(15.0)" class="key keypos-14">
<rect rx="6" ry="6" x="-26" y="-26" width="52" height="52" class="key"/>
<text x="0" y="0" class="key tap">4</text>
</g>
<g transform="translate(226, 89) rotate(15.0)" class="key keypos-15">
<rect rx="6" ry="6" x="-26" y="-26" width="52" height="52" class="key"/>
<text x="0" y="0" class="key tap">5</text>
</g>
<g transform="translate(276, 117) rotate(15.0)" class="key keypos-16">
<rect rx="6" ry="6" x="-26" y="-26" width="52" height="52" class="key"/>
<text x="0" y="0" class="key tap">6</text>
</g>
<g transform="translate(326, 145) rotate(15.0)" class="key keypos-17">
<rect rx="6" ry="6" x="-26" y="-26" width="52" height="52" class="key"/>
<text x="0" y="0" class="key tap">+</text>
</g>
<g transform="translate(532, 145) rotate(-15.0)" class="key keypos-18">
<rect rx="6" ry="6" x="-26" y="-26" width="52" height="52" class="key"/>
<text x="0" y="0" class="key tap">MUTE</text>
</g>
<g transform="translate(583, 117) rotate(-15.0)" class="key keypos-19">
<rect rx="6" ry="6" x="-26" y="-26" width="52" height="52" class="key"/>
<text x="0" y="0" class="key tap">←</text>
</g>
<g transform="translate(633, 89) rotate(-15.0)" class="key keypos-20">
<rect rx="6" ry="6" x="-26" y="-26" width="52" height="52" class="key"/>
<text x="0" y="0" class="key tap">↑</text>
</g>
<g transform="translate(691, 88) rotate(-15.0)" class="key keypos-21">
<rect rx="6" ry="6" x="-26" y="-26" width="52" height="52" class="key"/>
<text x="0" y="0" class="key tap">→</text>
</g>
<g transform="translate(752, 101) rotate(-15.0)" class="key keypos-22">
<rect rx="6" ry="6" x="-26" y="-26" width="52" height="52" class="key"/>
<text x="0" y="0" class="key tap">Insert</text>
</g>
<g transform="translate(810, 100) rotate(-15.0)" class="key keypos-23">
<rect rx="6" ry="6" x="-26" y="-26" width="52" height="52" class="key"/>
<text x="0" y="0" class="key tap">APP</text>
<text x="0" y="24" class="key hold">Ctrl</text>
</g>
<g transform="translate(34, 154) rotate(15.0)" class="key trans keypos-24">
<rect rx="6" ry="6" x="-26" y="-26" width="52" height="52" class="key trans"/>
<text x="0" y="0" class="key trans tap">▽</text>
</g>
<g transform="translate(92, 155) rotate(15.0)" class="key keypos-25">
<rect rx="6" ry="6" x="-26" y="-26" width="52" height="52" class="key"/>
<text x="0" y="0" class="key tap">0</text>
</g>
<g transform="translate(153, 142) rotate(15.0)" class="key keypos-26">
<rect rx="6" ry="6" x="-26" y="-26" width="52" height="52" class="key"/>
<text x="0" y="0" class="key tap">7</text>
</g>
<g transform="translate(211, 143) rotate(15.0)" class="key keypos-27">
<rect rx="6" ry="6" x="-26" y="-26" width="52" height="52" class="key"/>
<text x="0" y="0" class="key tap">8</text>
</g>
<g transform="translate(262, 171) rotate(15.0)" class="key keypos-28">
<rect rx="6" ry="6" x="-26" y="-26" width="52" height="52" class="key"/>
<text x="0" y="0" class="key tap">9</text>
</g>
<g transform="translate(312, 199) rotate(15.0)" class="key keypos-29">
<rect rx="6" ry="6" x="-26" y="-26" width="52" height="52" class="key"/>
<text x="0" y="0" class="key tap">.</text>
</g>
<g transform="translate(547, 199) rotate(-15.0)" class="key keypos-30">
<rect rx="6" ry="6" x="-26" y="-26" width="52" height="52" class="key"/>
<text x="0" y="0" class="key tap">
<tspan x="0" dy="-0.6em">Vol</tspan><tspan x="0" dy="1.2em">Down</tspan>
</text>
</g>
<g transform="translate(597, 171) rotate(-15.0)" class="key keypos-31">
<rect rx="6" ry="6" x="-26" y="-26" width="52" height="52" class="key"/>
<text x="0" y="0" class="key tap">End</text>
</g>
<g transform="translate(648, 143) rotate(-15.0)" class="key keypos-32">
<rect rx="6" ry="6" x="-26" y="-26" width="52" height="52" class="key"/>
<text x="0" y="0" class="key tap">↓</text>
</g>
<g transform="translate(705, 142) rotate(-15.0)" class="key keypos-33">
<rect rx="6" ry="6" x="-26" y="-26" width="52" height="52" class="key"/>
<text x="0" y="0" class="key tap">
<tspan x="0" dy="-0.6em">Page</tspan><tspan x="0" dy="1.2em">Down</tspan>
</text>
</g>
<g transform="translate(767, 155) rotate(-15.0)" class="key keypos-34">
<rect rx="6" ry="6" x="-26" y="-26" width="52" height="52" class="key"/>
<text x="0" y="0" class="key tap">
<tspan x="0" dy="-0.6em">Pause</tspan><tspan x="0" dy="1.2em">Break</tspan>
</text>
</g>
<g transform="translate(824, 154) rotate(-15.0)" class="key trans keypos-35">
<rect rx="6" ry="6" x="-26" y="-26" width="52" height="52" class="key trans"/>
<text x="0" y="0" class="key trans tap">▽</text>
</g>
<g transform="translate(247, 226) rotate(15.0)" class="key held keypos-36">
<rect rx="6" ry="6" x="-26" y="-26" width="52" height="52" class="key held"/>
</g>
<g transform="translate(298, 254) rotate(15.0)" class="key trans keypos-37">
<rect rx="6" ry="6" x="-26" y="-26" width="52" height="52" class="key trans"/>
<text x="0" y="0" class="key trans tap">▽</text>
</g>
<g transform="translate(348, 282) rotate(15.0)" class="key keypos-38">
<rect rx="6" ry="6" x="-26" y="-26" width="52" height="52" class="key"/>
<text x="0" y="0" class="key tap">⏎</text>
<a href="#adjust">
<text x="0" y="24" class="key hold layer-activator">adjust</text>
</a></g>
<g transform="translate(511, 282) rotate(-15.0)" class="key keypos-39">
<rect rx="6" ry="6" x="-26" y="-26" width="52" height="52" class="key"/>
<text x="0" y="0" class="key tap">Esc</text>
<a href="#adjust">
<text x="0" y="24" class="key hold layer-activator">adjust</text>
</a></g>
<g transform="translate(561, 254) rotate(-15.0)" class="key trans keypos-40">
<rect rx="6" ry="6" x="-26" y="-26" width="52" height="52" class="key trans"/>
<text x="0" y="0" class="key trans tap">▽</text>
</g>
<g transform="translate(612, 226) rotate(-15.0)" class="key trans keypos-41">
<rect rx="6" ry="6" x="-26" y="-26" width="52" height="52" class="key trans"/>
<text x="0" y="0" class="key trans tap">▽</text>
</g>
</g>
</g>
<g transform="translate(30, 1116)" class="layer-adjust">
<text x="0" y="28" class="label" id="adjust">adjust:</text>
<g transform="translate(0, 56)">
<g transform="translate(63, 46) rotate(15.0)" class="key keypos-0">
<rect rx="6" ry="6" x="-26" y="-26" width="52" height="52" class="key"/>
<text x="0" y="0" class="key tap">Boot</text>
</g>
<g transform="translate(121, 47) rotate(15.0)" class="key keypos-1">
<rect rx="6" ry="6" x="-26" y="-26" width="52" height="52" class="key"/>
<text x="0" y="0" class="key tap">Reset</text>
</g>
<g transform="translate(182, 34) rotate(15.0)" class="key keypos-2">
<rect rx="6" ry="6" x="-26" y="-26" width="52" height="52" class="key"/>
<text x="0" y="0" class="key tap"><tspan style="font-size: 64%">&amp;studio_un…</tspan></text>
</g>
<g transform="translate(240, 35) rotate(15.0)" class="key keypos-3">
<rect rx="6" ry="6" x="-26" y="-26" width="52" height="52" class="key"/>
</g>
<g transform="translate(291, 63) rotate(15.0)" class="key keypos-4">
<rect rx="6" ry="6" x="-26" y="-26" width="52" height="52" class="key"/>
</g>
<g transform="translate(341, 91) rotate(15.0)" class="key keypos-5">
<rect rx="6" ry="6" x="-26" y="-26" width="52" height="52" class="key"/>
</g>
<g transform="translate(518, 91) rotate(-15.0)" class="key keypos-6">
<rect rx="6" ry="6" x="-26" y="-26" width="52" height="52" class="key"/>
</g>
<g transform="translate(568, 63) rotate(-15.0)" class="key keypos-7">
<rect rx="6" ry="6" x="-26" y="-26" width="52" height="52" class="key"/>
</g>
<g transform="translate(619, 35) rotate(-15.0)" class="key keypos-8">
<rect rx="6" ry="6" x="-26" y="-26" width="52" height="52" class="key"/>
</g>
<g transform="translate(676, 34) rotate(-15.0)" class="key keypos-9">
<rect rx="6" ry="6" x="-26" y="-26" width="52" height="52" class="key"/>
</g>
<g transform="translate(738, 47) rotate(-15.0)" class="key keypos-10">
<rect rx="6" ry="6" x="-26" y="-26" width="52" height="52" class="key"/>
</g>
<g transform="translate(795, 46) rotate(-15.0)" class="key keypos-11">
<rect rx="6" ry="6" x="-26" y="-26" width="52" height="52" class="key"/>
<text x="0" y="0" class="key tap">Boot</text>
</g>
<g transform="translate(49, 100) rotate(15.0)" class="key keypos-12">
<rect rx="6" ry="6" x="-26" y="-26" width="52" height="52" class="key"/>
<text x="0" y="0" class="key tap">
<tspan x="0" dy="-0.6em">BT</tspan><tspan x="0" dy="1.2em">CLR</tspan>
</text>
</g>
<g transform="translate(107, 101) rotate(15.0)" class="key keypos-13">
<rect rx="6" ry="6" x="-26" y="-26" width="52" height="52" class="key"/>
<text x="0" y="0" class="key tap">
<tspan x="0" dy="-0.6em">BT</tspan><tspan x="0" dy="1.2em">1</tspan>
</text>
</g>
<g transform="translate(168, 88) rotate(15.0)" class="key keypos-14">
<rect rx="6" ry="6" x="-26" y="-26" width="52" height="52" class="key"/>
<text x="0" y="0" class="key tap">
<tspan x="0" dy="-0.6em">BT</tspan><tspan x="0" dy="1.2em">2</tspan>
</text>
</g>
<g transform="translate(226, 89) rotate(15.0)" class="key keypos-15">
<rect rx="6" ry="6" x="-26" y="-26" width="52" height="52" class="key"/>
<text x="0" y="0" class="key tap">
<tspan x="0" dy="-0.6em">BT</tspan><tspan x="0" dy="1.2em">3</tspan>
</text>
</g>
<g transform="translate(276, 117) rotate(15.0)" class="key keypos-16">
<rect rx="6" ry="6" x="-26" y="-26" width="52" height="52" class="key"/>
<text x="0" y="0" class="key tap">
<tspan x="0" dy="-0.6em">BT</tspan><tspan x="0" dy="1.2em">4</tspan>
</text>
</g>
<g transform="translate(326, 145) rotate(15.0)" class="key keypos-17">
<rect rx="6" ry="6" x="-26" y="-26" width="52" height="52" class="key"/>
<text x="0" y="0" class="key tap">
<tspan x="0" dy="-0.6em">BT</tspan><tspan x="0" dy="1.2em">5</tspan>
</text>
</g>
<g transform="translate(532, 145) rotate(-15.0)" class="key keypos-18">
<rect rx="6" ry="6" x="-26" y="-26" width="52" height="52" class="key"/>
<text x="0" y="0" class="key tap">
<tspan x="0" dy="-0.6em">BT</tspan><tspan x="0" dy="1.2em">5</tspan>
</text>
</g>
<g transform="translate(583, 117) rotate(-15.0)" class="key keypos-19">
<rect rx="6" ry="6" x="-26" y="-26" width="52" height="52" class="key"/>
<text x="0" y="0" class="key tap">
<tspan x="0" dy="-0.6em">BT</tspan><tspan x="0" dy="1.2em">4</tspan>
</text>
</g>
<g transform="translate(633, 89) rotate(-15.0)" class="key keypos-20">
<rect rx="6" ry="6" x="-26" y="-26" width="52" height="52" class="key"/>
<text x="0" y="0" class="key tap">
<tspan x="0" dy="-0.6em">BT</tspan><tspan x="0" dy="1.2em">3</tspan>
</text>
</g>
<g transform="translate(691, 88) rotate(-15.0)" class="key keypos-21">
<rect rx="6" ry="6" x="-26" y="-26" width="52" height="52" class="key"/>
<text x="0" y="0" class="key tap">
<tspan x="0" dy="-0.6em">BT</tspan><tspan x="0" dy="1.2em">2</tspan>
</text>
</g>
<g transform="translate(752, 101) rotate(-15.0)" class="key keypos-22">
<rect rx="6" ry="6" x="-26" y="-26" width="52" height="52" class="key"/>
<text x="0" y="0" class="key tap">
<tspan x="0" dy="-0.6em">BT</tspan><tspan x="0" dy="1.2em">1</tspan>
</text>
</g>
<g transform="translate(810, 100) rotate(-15.0)" class="key keypos-23">
<rect rx="6" ry="6" x="-26" y="-26" width="52" height="52" class="key"/>
<text x="0" y="0" class="key tap">
<tspan x="0" dy="-0.6em">BT</tspan><tspan x="0" dy="1.2em">CLR</tspan>
</text>
</g>
<g transform="translate(34, 154) rotate(15.0)" class="key keypos-24">
<rect rx="6" ry="6" x="-26" y="-26" width="52" height="52" class="key"/>
<text x="0" y="0" class="key tap">
<tspan x="0" dy="-0.6em">OUT</tspan><tspan x="0" dy="1.2em">TOG</tspan>
</text>
</g>
<g transform="translate(92, 155) rotate(15.0)" class="key keypos-25">
<rect rx="6" ry="6" x="-26" y="-26" width="52" height="52" class="key"/>
</g>
<g transform="translate(153, 142) rotate(15.0)" class="key keypos-26">
<rect rx="6" ry="6" x="-26" y="-26" width="52" height="52" class="key"/>
</g>
<g transform="translate(211, 143) rotate(15.0)" class="key keypos-27">
<rect rx="6" ry="6" x="-26" y="-26" width="52" height="52" class="key"/>
</g>
<g transform="translate(262, 171) rotate(15.0)" class="key keypos-28">
<rect rx="6" ry="6" x="-26" y="-26" width="52" height="52" class="key"/>
</g>
<g transform="translate(312, 199) rotate(15.0)" class="key keypos-29">
<rect rx="6" ry="6" x="-26" y="-26" width="52" height="52" class="key"/>
</g>
<g transform="translate(547, 199) rotate(-15.0)" class="key keypos-30">
<rect rx="6" ry="6" x="-26" y="-26" width="52" height="52" class="key"/>
</g>
<g transform="translate(597, 171) rotate(-15.0)" class="key keypos-31">
<rect rx="6" ry="6" x="-26" y="-26" width="52" height="52" class="key"/>
</g>
<g transform="translate(648, 143) rotate(-15.0)" class="key keypos-32">
<rect rx="6" ry="6" x="-26" y="-26" width="52" height="52" class="key"/>
</g>
<g transform="translate(705, 142) rotate(-15.0)" class="key keypos-33">
<rect rx="6" ry="6" x="-26" y="-26" width="52" height="52" class="key"/>
</g>
<g transform="translate(767, 155) rotate(-15.0)" class="key keypos-34">
<rect rx="6" ry="6" x="-26" y="-26" width="52" height="52" class="key"/>
</g>
<g transform="translate(824, 154) rotate(-15.0)" class="key keypos-35">
<rect rx="6" ry="6" x="-26" y="-26" width="52" height="52" class="key"/>
<text x="0" y="0" class="key tap">
<tspan x="0" dy="-0.6em">OUT</tspan><tspan x="0" dy="1.2em">TOG</tspan>
</text>
</g>
<g transform="translate(247, 226) rotate(15.0)" class="key held keypos-36">
<rect rx="6" ry="6" x="-26" y="-26" width="52" height="52" class="key held"/>
</g>
<g transform="translate(298, 254) rotate(15.0)" class="key keypos-37">
<rect rx="6" ry="6" x="-26" y="-26" width="52" height="52" class="key"/>
</g>
<g transform="translate(348, 282) rotate(15.0)" class="key held keypos-38">
<rect rx="6" ry="6" x="-26" y="-26" width="52" height="52" class="key held"/>
</g>
<g transform="translate(511, 282) rotate(-15.0)" class="key trans keypos-39">
<rect rx="6" ry="6" x="-26" y="-26" width="52" height="52" class="key trans"/>
<text x="0" y="0" class="key trans tap">▽</text>
</g>
<g transform="translate(561, 254) rotate(-15.0)" class="key keypos-40">
<rect rx="6" ry="6" x="-26" y="-26" width="52" height="52" class="key"/>
</g>
<g transform="translate(612, 226) rotate(-15.0)" class="key trans keypos-41">
<rect rx="6" ry="6" x="-26" y="-26" width="52" height="52" class="key trans"/>
<text x="0" y="0" class="key trans tap">▽</text>
</g>
</g>
</g>
<g transform="translate(30, 1488)" class="layer-game">
<text x="0" y="28" class="label" id="game">game:</text>
<g transform="translate(0, 56)">
<g transform="translate(63, 46) rotate(15.0)" class="key keypos-0">
<rect rx="6" ry="6" x="-26" y="-26" width="52" height="52" class="key"/>
<text x="0" y="0" class="key tap">ESCAPE</text>
</g>
<g transform="translate(121, 47) rotate(15.0)" class="key keypos-1">
<rect rx="6" ry="6" x="-26" y="-26" width="52" height="52" class="key"/>
<text x="0" y="0" class="key tap">1</text>
</g>
<g transform="translate(182, 34) rotate(15.0)" class="key keypos-2">
<rect rx="6" ry="6" x="-26" y="-26" width="52" height="52" class="key"/>
<text x="0" y="0" class="key tap">2</text>
</g>
<g transform="translate(240, 35) rotate(15.0)" class="key keypos-3">
<rect rx="6" ry="6" x="-26" y="-26" width="52" height="52" class="key"/>
<text x="0" y="0" class="key tap">3</text>
</g>
<g transform="translate(291, 63) rotate(15.0)" class="key keypos-4">
<rect rx="6" ry="6" x="-26" y="-26" width="52" height="52" class="key"/>
<text x="0" y="0" class="key tap">4</text>
</g>
<g transform="translate(341, 91) rotate(15.0)" class="key keypos-5">
<rect rx="6" ry="6" x="-26" y="-26" width="52" height="52" class="key"/>
<text x="0" y="0" class="key tap">5</text>
</g>
<g transform="translate(518, 91) rotate(-15.0)" class="key keypos-6">
<rect rx="6" ry="6" x="-26" y="-26" width="52" height="52" class="key"/>
<text x="0" y="0" class="key tap">F1</text>
</g>
<g transform="translate(568, 63) rotate(-15.0)" class="key keypos-7">
<rect rx="6" ry="6" x="-26" y="-26" width="52" height="52" class="key"/>
<text x="0" y="0" class="key tap">F2</text>
</g>
<g transform="translate(619, 35) rotate(-15.0)" class="key keypos-8">
<rect rx="6" ry="6" x="-26" y="-26" width="52" height="52" class="key"/>
<text x="0" y="0" class="key tap">T</text>
</g>
<g transform="translate(676, 34) rotate(-15.0)" class="key trans keypos-9">
<rect rx="6" ry="6" x="-26" y="-26" width="52" height="52" class="key trans"/>
<text x="0" y="0" class="key trans tap">▽</text>
</g>
<g transform="translate(738, 47) rotate(-15.0)" class="key trans keypos-10">
<rect rx="6" ry="6" x="-26" y="-26" width="52" height="52" class="key trans"/>
<text x="0" y="0" class="key trans tap">▽</text>
</g>
<g transform="translate(795, 46) rotate(-15.0)" class="key keypos-11">
<rect rx="6" ry="6" x="-26" y="-26" width="52" height="52" class="key"/>
<text x="0" y="0" class="key tap">
<tspan x="0" dy="-0.6em">VOLUME</tspan><tspan x="0" dy="1.2em">UP</tspan>
</text>
</g>
<g transform="translate(49, 100) rotate(15.0)" class="key keypos-12">
<rect rx="6" ry="6" x="-26" y="-26" width="52" height="52" class="key"/>
<text x="0" y="0" class="key tap">
<tspan x="0" dy="-0.6em">LEFT</tspan><tspan x="0" dy="1.2em">SHIFT</tspan>
</text>
</g>
<g transform="translate(107, 101) rotate(15.0)" class="key keypos-13">
<rect rx="6" ry="6" x="-26" y="-26" width="52" height="52" class="key"/>
<text x="0" y="0" class="key tap">Q</text>
</g>
<g transform="translate(168, 88) rotate(15.0)" class="key keypos-14">
<rect rx="6" ry="6" x="-26" y="-26" width="52" height="52" class="key"/>
<text x="0" y="0" class="key tap">W</text>
</g>
<g transform="translate(226, 89) rotate(15.0)" class="key keypos-15">
<rect rx="6" ry="6" x="-26" y="-26" width="52" height="52" class="key"/>
<text x="0" y="0" class="key tap">E</text>
</g>
<g transform="translate(276, 117) rotate(15.0)" class="key keypos-16">
<rect rx="6" ry="6" x="-26" y="-26" width="52" height="52" class="key"/>
<text x="0" y="0" class="key tap">R</text>
</g>
<g transform="translate(326, 145) rotate(15.0)" class="key keypos-17">
<rect rx="6" ry="6" x="-26" y="-26" width="52" height="52" class="key"/>
<text x="0" y="0" class="key tap">G</text>
</g>
<g transform="translate(532, 145) rotate(-15.0)" class="key keypos-18">
<rect rx="6" ry="6" x="-26" y="-26" width="52" height="52" class="key"/>
<text x="0" y="0" class="key tap">`</text>
</g>
<g transform="translate(583, 117) rotate(-15.0)" class="key trans keypos-19">
<rect rx="6" ry="6" x="-26" y="-26" width="52" height="52" class="key trans"/>
<text x="0" y="0" class="key trans tap">▽</text>
</g>
<g transform="translate(633, 89) rotate(-15.0)" class="key trans keypos-20">
<rect rx="6" ry="6" x="-26" y="-26" width="52" height="52" class="key trans"/>
<text x="0" y="0" class="key trans tap">▽</text>
</g>
<g transform="translate(691, 88) rotate(-15.0)" class="key trans keypos-21">
<rect rx="6" ry="6" x="-26" y="-26" width="52" height="52" class="key trans"/>
<text x="0" y="0" class="key trans tap">▽</text>
</g>
<g transform="translate(752, 101) rotate(-15.0)" class="key keypos-22">
<rect rx="6" ry="6" x="-26" y="-26" width="52" height="52" class="key"/>
<text x="0" y="0" class="key tap">Alt+↹</text>
</g>
<g transform="translate(810, 100) rotate(-15.0)" class="key keypos-23">
<rect rx="6" ry="6" x="-26" y="-26" width="52" height="52" class="key"/>
<text x="0" y="0" class="key tap">
<tspan x="0" dy="-0.6em">Vol</tspan><tspan x="0" dy="1.2em">Down</tspan>
</text>
</g>
<g transform="translate(34, 154) rotate(15.0)" class="key keypos-24">
<rect rx="6" ry="6" x="-26" y="-26" width="52" height="52" class="key"/>
<text x="0" y="0" class="key tap">Ctrl</text>
</g>
<g transform="translate(92, 155) rotate(15.0)" class="key keypos-25">
<rect rx="6" ry="6" x="-26" y="-26" width="52" height="52" class="key"/>
<text x="0" y="0" class="key tap">A</text>
</g>
<g transform="translate(153, 142) rotate(15.0)" class="key keypos-26">
<rect rx="6" ry="6" x="-26" y="-26" width="52" height="52" class="key"/>
<text x="0" y="0" class="key tap">S</text>
</g>
<g transform="translate(211, 143) rotate(15.0)" class="key keypos-27">
<rect rx="6" ry="6" x="-26" y="-26" width="52" height="52" class="key"/>
<text x="0" y="0" class="key tap">D</text>
</g>
<g transform="translate(262, 171) rotate(15.0)" class="key keypos-28">
<rect rx="6" ry="6" x="-26" y="-26" width="52" height="52" class="key"/>
<text x="0" y="0" class="key tap">B</text>
</g>
<g transform="translate(312, 199) rotate(15.0)" class="key keypos-29">
<rect rx="6" ry="6" x="-26" y="-26" width="52" height="52" class="key"/>
<text x="0" y="0" class="key tap">F</text>
</g>
<g transform="translate(547, 199) rotate(-15.0)" class="key trans keypos-30">
<rect rx="6" ry="6" x="-26" y="-26" width="52" height="52" class="key trans"/>
<text x="0" y="0" class="key trans tap">▽</text>
</g>
<g transform="translate(597, 171) rotate(-15.0)" class="key keypos-31">
<rect rx="6" ry="6" x="-26" y="-26" width="52" height="52" class="key"/>
<text x="0" y="0" class="key tap">M</text>
</g>
<g transform="translate(648, 143) rotate(-15.0)" class="key trans keypos-32">
<rect rx="6" ry="6" x="-26" y="-26" width="52" height="52" class="key trans"/>
<text x="0" y="0" class="key trans tap">▽</text>
</g>
<g transform="translate(705, 142) rotate(-15.0)" class="key trans keypos-33">
<rect rx="6" ry="6" x="-26" y="-26" width="52" height="52" class="key trans"/>
<text x="0" y="0" class="key trans tap">▽</text>
</g>
<g transform="translate(767, 155) rotate(-15.0)" class="key keypos-34">
<rect rx="6" ry="6" x="-26" y="-26" width="52" height="52" class="key"/>
<text x="0" y="0" class="key tap">
<tspan x="0" dy="-0.6em">Win</tspan><tspan x="0" dy="1.2em">Prev</tspan>
</text>
</g>
<g transform="translate(824, 154) rotate(-15.0)" class="key keypos-35">
<rect rx="6" ry="6" x="-26" y="-26" width="52" height="52" class="key"/>
<text x="0" y="0" class="key tap">MUTE</text>
</g>
<g transform="translate(247, 226) rotate(15.0)" class="key keypos-36">
<rect rx="6" ry="6" x="-26" y="-26" width="52" height="52" class="key"/>
<text x="0" y="0" class="key tap">C</text>
</g>
<g transform="translate(298, 254) rotate(15.0)" class="key keypos-37">
<rect rx="6" ry="6" x="-26" y="-26" width="52" height="52" class="key"/>
<text x="0" y="0" class="key tap">␣</text>
</g>
<g transform="translate(348, 282) rotate(15.0)" class="key keypos-38">
<rect rx="6" ry="6" x="-26" y="-26" width="52" height="52" class="key"/>
<text x="0" y="0" class="key tap">↹</text>
</g>
<g transform="translate(511, 282) rotate(-15.0)" class="key keypos-39">
<rect rx="6" ry="6" x="-26" y="-26" width="52" height="52" class="key"/>
<text x="0" y="0" class="key tap">K</text>
</g>
<g transform="translate(561, 254) rotate(-15.0)" class="key trans keypos-40">
<rect rx="6" ry="6" x="-26" y="-26" width="52" height="52" class="key trans"/>
<text x="0" y="0" class="key trans tap">▽</text>
</g>
<g transform="translate(612, 226) rotate(-15.0)" class="key trans keypos-41">
<rect rx="6" ry="6" x="-26" y="-26" width="52" height="52" class="key trans"/>
<text x="0" y="0" class="key trans tap">▽</text>
</g>
<g class="combo combopos-0">
<rect rx="6" ry="6" x="219" y="49" width="28" height="26" class="combo"/>
<a href="#default">
<text x="233" y="62" class="combo tap layer-activator">default</text>
</a><text x="233" y="73" class="combo hold">toggle</text>
</g>
<g class="combo combopos-1">
<rect rx="6" ry="6" x="309" y="255" width="28" height="26" class="combo"/>
<text x="323" y="268" class="combo tap">K</text>
</g>
</g>
</g>
<text x="889.0" y="1887.0" class="footer">Created with <a href="https://github.com/caksoylar/keymap-drawer">keymap-drawer</a></text></svg>
